<svg id="图层_1" data-name="图层 1" xmlns="http://www.w3.org/2000/svg" viewBox="0 0 24 24"><defs><style>.cls-1{fill:#221714;}</style></defs><title>符号</title><rect class="cls-1" x="1.98" y="15.11" width="20.18" height="1.5"/><rect class="cls-1" x="1.84" y="18.88" width="20.18" height="1.5"/><path class="cls-1" d="M6.34,13.55A4.12,4.12,0,0,1,2,9.29C2,8.58,2.27,5,8,5v1.5c-4.22,0-4.55,2.11-4.55,2.75a2.63,2.63,0,0,0,2.86,2.76c2.11,0,3.58-1.33,5.24-3.1l.17-.19C13.23,7.17,15.25,5,18.26,5a4.12,4.12,0,0,1,4.36,4.26c0,.71-.29,4.25-6.05,4.25V12c4.23,0,4.55-2.11,4.55-2.75a2.63,2.63,0,0,0-2.86-2.76c-2.1,0-3.57,1.33-5.23,3.1l-.18.19C11.37,11.37,9.35,13.55,6.34,13.55Z"/></svg>