<svg id="图层_1" data-name="图层 1" xmlns="http://www.w3.org/2000/svg" viewBox="0 0 24 24"><defs><style>.cls-1{fill:#221714;}</style></defs><title>符号</title><path class="cls-1" d="M6,16.28A4.12,4.12,0,0,1,1.68,12c0-.71.29-4.25,6.05-4.25v1.5C3.5,9.27,3.18,11.38,3.18,12A2.63,2.63,0,0,0,6,14.78c2.11,0,3.58-1.33,5.24-3.1l.17-.19C12.93,9.9,15,7.72,18,7.72A4.12,4.12,0,0,1,22.32,12c0,.71-.29,4.25-6.05,4.25v-1.5c4.23,0,4.55-2.11,4.55-2.75A2.63,2.63,0,0,0,18,9.22c-2.11,0-3.58,1.33-5.24,3.1l-.17.19C11.07,14.1,9.05,16.28,6,16.28Z"/></svg>